{"title":"The Devil Within 2010 DVDRip Xvid BigPerm LKRG","uid":5699055,"size":706149914,"categoryP":"video","categoryS":"movies","magnet":"?xt=urn:btih:ba63fb5f68c6727116bd97e72b85cbac6ddddd98&amp;dn=The+Devil+Within+2010+DVDRip+Xvid+BigPerm+LKRG&amp;tr=udp%3A%2F%2Ftracker.openbittorrent.com%3A80&amp;tr=udp%3A%2F%2Fopen.demonii.com%3A1337&amp;tr=udp%3A%2F%2Ftracker.coppersurfer.tk%3A6969&amp;tr=udp%3A%2F%2Fexodus.desync.com%3A6969","seeders":2,"leechers":0,"uploader":"willywonka111111","files":2,"time":1279422332,"description":"The Devil Within 2010 DVDRip Xvid BigPerm LKRG\n\n\nPlot:\n\nA night of sex, drugs and partying in the Hollywood Hill's is the perfect setting for Serina's 18th birthday - until this high school pool party goes horribly wrong when an uninvited guest begins killing everyone. \n\n\nCast:\n\nElizabeth Di Prinzio....................Sirena\nSarah Kathryn Harrison..................Doug\nBill Oberst Jr..........................Principal Edwards\nGrey Damon..............................John\nElizabeth Bell..........................Karen\nAlex Aldridge...........................Kyle\nJamie Lea Willett.......................Sarah\nPeyten Aldridge.........................Rachel\nJennifer Erin Bailey....................Lisa\nDavid Mingrino..........................Jack\nKurt Jenko..............................Kid #1\nMaurice Webster.........................Big Guy #1\nBrian McLaughlin........................Brent\nBrooke Krohn............................Girl #1\nR.J. Frost..............................Drunk in the ally\n\n\n\nGeneral:\n\nComplete name : The Devil Within 2010 DVDRip BigPerm LKRG\\TDWLKRG.avi\nFormat : AVI\nFormat/Info : Audio Video Interleave\nFile size : 673 MiB\nDuration : 1h 18mn\nOverall bit rate : 1 204 Kbps\n\nVideo:\n\nID : 0\nFormat : MPEG-4 Visual\nFormat profile : Advanced Simple@L5\nFormat settings, BVOP : Yes\nFormat settings, QPel : No\nFormat settings, GMC : No warppoints\nFormat settings, Matrix : Default (H.263)\nCodec ID : XVID\nCodec ID/Hint : XviD\nDuration : 1h 18mn\nBit rate : 1 007 Kbps\nWidth : 700 pixels\nHeight : 392 pixels\nDisplay aspect ratio : 16:9\nFrame rate : 23.976 fps\nResolution : 8 bits\nColorimetry : 4:2:0\nScan type : Progressive\nBits/(Pixel*Frame) : 0.153\nStream size : 563 MiB (84%)\nWriting library : XviD 1.2.1 (UTC 2008-12-04)\n\nAudio:\n\nID : 1\nFormat : AC-3\nFormat/Info : Audio Coding 3\nCodec ID : 2000\nDuration : 1h 18mn\nBit rate mode : Constant\nBit rate : 192 Kbps\nChannel(s) : 2 channels\nChannel positions : Front: L R\nSampling rate : 48.0 KHz\nResolution : 16 bits\nVideo delay : 42ms\nStream size : 107 MiB (16%)\nAlignment : Split accross interleaves\nLanguage : English","torrent":{"xt":"urn:btih:ba63fb5f68c6727116bd97e72b85cbac6ddddd98","amp;dn":"The+Devil+Within+2010+DVDRip+Xvid+BigPerm+LKRG","amp;tr":["udp%3A%2F%2Ftracker.openbittorrent.com%3A80","udp%3A%2F%2Fopen.demonii.com%3A1337","udp%3A%2F%2Ftracker.coppersurfer.tk%3A6969","udp%3A%2F%2Fexodus.desync.com%3A6969"],"infoHash":"ba63fb5f68c6727116bd97e72b85cbac6ddddd98","infoHashBuffer":{"type":"Buffer","data":[186,99,251,95,104,198,114,113,22,189,151,231,43,133,203,172,109,221,221,152]},"announce":[],"urlList":[]}}